<svg xmlns="http://www.w3.org/2000/svg" viewBox="0 0 64 64" role="img" aria-label="C++">
  <rect width="64" height="64" rx="14" fill="#00599C" />
  <path
    fill="#FFF"
    d="M36.7 18.5 26 24.7v14.6l10.7 6.2 10.7-6.2v-4.7h-5.4v1.6l-5.3 3.1-5.3-3.1V27.8l5.3-3.1 5.3 3.1v1.6h5.4v-4.7z"
  />
  <path fill="#FFF" d="M18.7 31.9a9.5 9.5 0 0 1 9.5-9.5v5.1a4.4 4.4 0 1 0 0 8.8v5.1a9.5 9.5 0 0 1-9.5-9.5Z" />
  <path fill="#FFF" d="M46.8 26.5h2.3v2.3h2.3v2.3h-2.3v2.3h-2.3v-2.3h-2.3v-2.3h2.3zm6.2 0h2.3v2.3h2.3v2.3h-2.3v2.3H53v-2.3h-2.3v-2.3H53z" />
</svg>
